G04 #@! TF.FileFunction,Paste,Top*
%FSLAX46Y46*%
G04 Gerber Fmt 4.6, Leading zero omitted, Abs format (unit mm)*
G04 Created by KiCad (PCBNEW 4.0.6) date Friday, August 11, 2017 'AMt' 08:07:05 AM*
%MOMM*%
%LPD*%
G01*
G04 APERTURE LIST*
%ADD10C,0.100000*%
%ADD11R,1.310000X0.450000*%
%ADD12R,1.590000X1.200000*%
%ADD13R,0.750000X0.800000*%
%ADD14R,0.500000X0.900000*%
%ADD15R,1.250000X1.000000*%
%ADD16R,0.800000X0.750000*%
%ADD17R,0.700000X0.250000*%
%ADD18R,0.498000X0.714000*%
%ADD19R,0.200000X0.600000*%
%ADD20R,0.600000X0.200000*%
%ADD21R,0.795000X0.795000*%
%ADD22R,0.900000X0.800000*%
%ADD23R,0.900000X0.500000*%
%ADD24R,0.740000X2.400000*%
G04 APERTURE END LIST*
D10*
D11*
X58745000Y-31690000D03*
X58745000Y-32340000D03*
X58745000Y-32990000D03*
X58745000Y-33640000D03*
X58745000Y-34290000D03*
X58745000Y-34940000D03*
X58745000Y-35590000D03*
X64445000Y-35590000D03*
D12*
X61595000Y-34640000D03*
X61595000Y-32640000D03*
D11*
X64445000Y-34940000D03*
X64445000Y-34290000D03*
X64445000Y-33640000D03*
X64445000Y-32990000D03*
X64445000Y-32340000D03*
X64445000Y-31690000D03*
D13*
X52705000Y-44565000D03*
X52705000Y-43065000D03*
D14*
X51066000Y-31115000D03*
X52566000Y-31115000D03*
X56630000Y-31877000D03*
X55130000Y-31877000D03*
X56630000Y-36068000D03*
X55130000Y-36068000D03*
X52566000Y-29718000D03*
X51066000Y-29718000D03*
D15*
X44704000Y-31385000D03*
X44704000Y-33385000D03*
D16*
X51066000Y-33655000D03*
X52566000Y-33655000D03*
X51066000Y-32385000D03*
X52566000Y-32385000D03*
D13*
X60960000Y-38120000D03*
X60960000Y-36620000D03*
D14*
X55130000Y-33274000D03*
X56630000Y-33274000D03*
D17*
X49660000Y-32119000D03*
X49660000Y-31619000D03*
X49660000Y-31119000D03*
X49660000Y-30619000D03*
X46860000Y-30619000D03*
X46860000Y-31119000D03*
X46860000Y-31619000D03*
X46860000Y-32119000D03*
D18*
X47845000Y-30774000D03*
X47845000Y-31964000D03*
X48675000Y-30774000D03*
X48675000Y-31964000D03*
D16*
X64250000Y-38100000D03*
X62750000Y-38100000D03*
D14*
X55130000Y-34671000D03*
X56630000Y-34671000D03*
X55130000Y-30480000D03*
X56630000Y-30480000D03*
X62750000Y-36830000D03*
X64250000Y-36830000D03*
X62750000Y-30480000D03*
X64250000Y-30480000D03*
D19*
X54452500Y-42512500D03*
X54852500Y-42512500D03*
X55252500Y-42512500D03*
X55652500Y-42512500D03*
X56052500Y-42512500D03*
X56452500Y-42512500D03*
X56852500Y-42512500D03*
X57252500Y-42512500D03*
D20*
X57752500Y-42012500D03*
X57752500Y-41612500D03*
X57752500Y-41212500D03*
X57752500Y-40812500D03*
X57752500Y-40412500D03*
X57752500Y-40012500D03*
X57752500Y-39612500D03*
X57752500Y-39212500D03*
D19*
X57252500Y-38712500D03*
X56852500Y-38712500D03*
X56452500Y-38712500D03*
X56052500Y-38712500D03*
X55652500Y-38712500D03*
X55252500Y-38712500D03*
X54852500Y-38712500D03*
X54452500Y-38712500D03*
D20*
X53952500Y-39212500D03*
X53952500Y-39612500D03*
X53952500Y-40012500D03*
X53952500Y-40412500D03*
X53952500Y-40812500D03*
X53952500Y-41212500D03*
X53952500Y-41612500D03*
X53952500Y-42012500D03*
D21*
X56515000Y-39950000D03*
X55190000Y-39950000D03*
X56515000Y-41275000D03*
X55190000Y-41275000D03*
D16*
X64123000Y-29210000D03*
X62623000Y-29210000D03*
X57670000Y-37465000D03*
X59170000Y-37465000D03*
D13*
X42545000Y-35675000D03*
X42545000Y-34175000D03*
X42545000Y-39255000D03*
X42545000Y-40755000D03*
D22*
X44085000Y-35245000D03*
X44085000Y-37145000D03*
X46085000Y-36195000D03*
X44085000Y-39055000D03*
X44085000Y-40955000D03*
X46085000Y-40005000D03*
D23*
X41275000Y-35675000D03*
X41275000Y-34175000D03*
X41275000Y-39255000D03*
X41275000Y-40755000D03*
D22*
X44085000Y-42865000D03*
X44085000Y-44765000D03*
X46085000Y-43815000D03*
D16*
X51550000Y-43053000D03*
X50050000Y-43053000D03*
D13*
X58928000Y-40144000D03*
X58928000Y-41644000D03*
D24*
X62357000Y-44876000D03*
X62357000Y-40976000D03*
X63627000Y-44876000D03*
X63627000Y-40976000D03*
X64897000Y-44876000D03*
X64897000Y-40976000D03*
D14*
X41045000Y-36830000D03*
X42545000Y-36830000D03*
X41045000Y-38100000D03*
X42545000Y-38100000D03*
M02*
